# xmcd
#
# Track frame offsets:
#	180
#	18340
#	39984
#	51934
#	64345
#	74985
#	84986
#	99278
#	111672
#	122241
#
# Disc length: 1800
#
# Revision: 2
# Processed by: cddbd v1.5.1PL0 Copyright (c) Steve Scherf et al.
# Submitted via: EasyCDDAExtractor 6.5.0.1
# Normalized: r1:DSETVAR1
#
DISCID=8f07060a
DTITLE=Various Artist - The Best Of Country Gospel Vol. 2
DYEAR=1900
DGENRE=Gospel
TTITLE0=T. Graham Brown - Old Rugged Cross
TTITLE1=Lee Greenwood - How Great Thou Art
TTITLE2=The Jordanaires - I Shall Not Be Moved
TTITLE3=The Jordanaires - In The Garden
TTITLE4=The Jordanaires - Power In Blood
TTITLE5=The Jordanaires - Dip Your Fingers In The Water
TTITLE6=Mark Gray - When The Roll Is Called Up Yonder
TTITLE7=Sandy Posey - Blessed Assurance
TTITLE8=Eddy Raven - Love Lifted Me
TTITLE9=Patsy Cline - Just A Closer Walk With Thee
EXTD=
EXTT0=
EXTT1=
EXTT2=
EXTT3=
EXTT4=
EXTT5=
EXTT6=
EXTT7=
EXTT8=
EXTT9=
PLAYORDER=
